<?xml version="1.0" encoding="UTF-8" standalone="no"?>
<!DOCTYPE svg PUBLIC "-//W3C//DTD SVG 1.1//EN"
 "http://www.w3.org/Graphics/SVG/1.1/DTD/svg11.dtd">
<!-- Generated by graphviz version 2.40.1 (20161225.0304)
 -->
<!-- Title: payme Pages: 1 -->
<svg width="864pt" height="218pt"
 viewBox="0.00 0.00 864.00 218.00" xmlns="http://www.w3.org/2000/svg" xmlns:xlink="http://www.w3.org/1999/xlink">
<g id="graph0" class="graph" transform="scale(1 1) rotate(0) translate(4 214)">
<title>payme</title>
<polygon fill="#f7f8f9" stroke="transparent" points="-4,4 -4,-214 860,-214 860,4 -4,4"/>
<!-- 18985 -->
<g id="node1" class="node">
<title>18985</title>
<g id="a_node1"><a xlink:href="javascript:window.parent.edit_table('/projects/1462/tables/18985/edit');" xlink:title="&lt;TABLE&gt;">
<polygon fill="#ececfc" stroke="transparent" points="660,-172 660,-206 848,-206 848,-172 660,-172"/>
<polygon fill="none" stroke="#000000" points="660,-172 660,-206 848,-206 848,-172 660,-172"/>
<text text-anchor="start" x="735" y="-192.8" font-family="Times,serif" font-weight="bold" font-size="14.00" fill="#000000">details</text>
<text text-anchor="start" x="677" y="-178.8" font-family="Times,serif" font-weight="bold" font-size="14.00" fill="#000000">itemized list of food prices</text>
<polygon fill="#01f800" stroke="transparent" points="660,-151 660,-172 725,-172 725,-151 660,-151"/>
<polygon fill="none" stroke="#000000" points="660,-151 660,-172 725,-172 725,-151 660,-151"/>
<text text-anchor="start" x="663" y="-157.8" font-family="Times,serif" font-size="14.00" fill="#000000">group_id</text>
<polygon fill="#01f800" stroke="transparent" points="725,-151 725,-172 769,-172 769,-151 725,-151"/>
<polygon fill="none" stroke="#000000" points="725,-151 725,-172 769,-172 769,-151 725,-151"/>
<text text-anchor="start" x="728" y="-157.8" font-family="Times,serif" font-size="14.00" fill="#000000">integer</text>
<polygon fill="#01f800" stroke="transparent" points="769,-151 769,-172 848,-172 848,-151 769,-151"/>
<polygon fill="none" stroke="#000000" points="769,-151 769,-172 848,-172 848,-151 769,-151"/>
<text text-anchor="start" x="772" y="-157.8" font-family="Times,serif" font-size="14.00" fill="#000000">[pk, not null]</text>
<polygon fill="#01f800" stroke="transparent" points="660,-130 660,-151 725,-151 725,-130 660,-130"/>
<polygon fill="none" stroke="#000000" points="660,-130 660,-151 725,-151 725,-130 660,-130"/>
<text text-anchor="start" x="663" y="-136.8" font-family="Times,serif" font-size="14.00" fill="#000000">id</text>
<polygon fill="#01f800" stroke="transparent" points="725,-130 725,-151 769,-151 769,-130 725,-130"/>
<polygon fill="none" stroke="#000000" points="725,-130 725,-151 769,-151 769,-130 725,-130"/>
<text text-anchor="start" x="728" y="-136.8" font-family="Times,serif" font-size="14.00" fill="#000000">integer</text>
<polygon fill="#01f800" stroke="transparent" points="769,-130 769,-151 848,-151 848,-130 769,-130"/>
<polygon fill="none" stroke="#000000" points="769,-130 769,-151 848,-151 848,-130 769,-130"/>
<text text-anchor="start" x="793" y="-136.8" font-family="Times,serif" font-size="14.00" fill="#000000">[not null]</text>
<polygon fill="#01f800" stroke="transparent" points="660,-109 660,-130 725,-130 725,-109 660,-109"/>
<polygon fill="none" stroke="#000000" points="660,-109 660,-130 725,-130 725,-109 660,-109"/>
<text text-anchor="start" x="663" y="-115.8" font-family="Times,serif" font-size="14.00" fill="#000000">txn_id</text>
<polygon fill="#01f800" stroke="transparent" points="725,-109 725,-130 769,-130 769,-109 725,-109"/>
<polygon fill="none" stroke="#000000" points="725,-109 725,-130 769,-130 769,-109 725,-109"/>
<text text-anchor="start" x="728" y="-115.8" font-family="Times,serif" font-size="14.00" fill="#000000">integer</text>
<polygon fill="#01f800" stroke="transparent" points="769,-109 769,-130 848,-130 848,-109 769,-109"/>
<polygon fill="none" stroke="#000000" points="769,-109 769,-130 848,-130 848,-109 769,-109"/>
<text text-anchor="start" x="793" y="-115.8" font-family="Times,serif" font-size="14.00" fill="#000000">[not null]</text>
<polygon fill="#01f800" stroke="transparent" points="660,-88 660,-109 725,-109 725,-88 660,-88"/>
<polygon fill="none" stroke="#000000" points="660,-88 660,-109 725,-109 725,-88 660,-88"/>
<text text-anchor="start" x="663" y="-94.8" font-family="Times,serif" font-size="14.00" fill="#000000">food_price</text>
<polygon fill="#01f800" stroke="transparent" points="725,-88 725,-109 769,-109 769,-88 725,-88"/>
<polygon fill="none" stroke="#000000" points="725,-88 725,-109 769,-109 769,-88 725,-88"/>
<text text-anchor="start" x="728" y="-94.8" font-family="Times,serif" font-size="14.00" fill="#000000">float</text>
<polygon fill="#01f800" stroke="transparent" points="769,-88 769,-109 848,-109 848,-88 769,-88"/>
<polygon fill="none" stroke="#000000" points="769,-88 769,-109 848,-109 848,-88 769,-88"/>
<text text-anchor="start" x="793" y="-94.8" font-family="Times,serif" font-size="14.00" fill="#000000">[not null]</text>
</a>
</g>
</g>
<!-- 18984 -->
<g id="node2" class="node">
<title>18984</title>
<g id="a_node2"><a xlink:href="javascript:window.parent.edit_table('/projects/1462/tables/18984/edit');" xlink:title="&lt;TABLE&gt;">
<polygon fill="#ececfc" stroke="transparent" points="344.5,-172 344.5,-206 577.5,-206 577.5,-172 344.5,-172"/>
<polygon fill="none" stroke="#000000" points="344.5,-172 344.5,-206 577.5,-206 577.5,-172 344.5,-172"/>
<text text-anchor="start" x="432.5" y="-192.8" font-family="Times,serif" font-weight="bold" font-size="14.00" fill="#000000">summary</text>
<text text-anchor="start" x="388" y="-178.8" font-family="Times,serif" font-weight="bold" font-size="14.00" fill="#000000">summary of transactions</text>
<polygon fill="#01f800" stroke="transparent" points="344.5,-151 344.5,-172 434.5,-172 434.5,-151 344.5,-151"/>
<polygon fill="none" stroke="#000000" points="344.5,-151 344.5,-172 434.5,-172 434.5,-151 344.5,-151"/>
<text text-anchor="start" x="347.5" y="-157.8" font-family="Times,serif" font-size="14.00" fill="#000000">group_id</text>
<polygon fill="#01f800" stroke="transparent" points="434.5,-151 434.5,-172 498.5,-172 498.5,-151 434.5,-151"/>
<polygon fill="none" stroke="#000000" points="434.5,-151 434.5,-172 498.5,-172 498.5,-151 434.5,-151"/>
<text text-anchor="start" x="437.5" y="-157.8" font-family="Times,serif" font-size="14.00" fill="#000000">integer</text>
<polygon fill="#01f800" stroke="transparent" points="498.5,-151 498.5,-172 577.5,-172 577.5,-151 498.5,-151"/>
<polygon fill="none" stroke="#000000" points="498.5,-151 498.5,-172 577.5,-172 577.5,-151 498.5,-151"/>
<text text-anchor="start" x="501.5" y="-157.8" font-family="Times,serif" font-size="14.00" fill="#000000">[pk, not null]</text>
<polygon fill="#01f800" stroke="transparent" points="344.5,-130 344.5,-151 434.5,-151 434.5,-130 344.5,-130"/>
<polygon fill="none" stroke="#000000" points="344.5,-130 344.5,-151 434.5,-151 434.5,-130 344.5,-130"/>
<text text-anchor="start" x="347.5" y="-136.8" font-family="Times,serif" font-size="14.00" fill="#000000">id</text>
<polygon fill="#01f800" stroke="transparent" points="434.5,-130 434.5,-151 498.5,-151 498.5,-130 434.5,-130"/>
<polygon fill="none" stroke="#000000" points="434.5,-130 434.5,-151 498.5,-151 498.5,-130 434.5,-130"/>
<text text-anchor="start" x="437.5" y="-136.8" font-family="Times,serif" font-size="14.00" fill="#000000">integer</text>
<polygon fill="#01f800" stroke="transparent" points="498.5,-130 498.5,-151 577.5,-151 577.5,-130 498.5,-130"/>
<polygon fill="none" stroke="#000000" points="498.5,-130 498.5,-151 577.5,-151 577.5,-130 498.5,-130"/>
<text text-anchor="start" x="522.5" y="-136.8" font-family="Times,serif" font-size="14.00" fill="#000000">[not null]</text>
<polygon fill="#01f800" stroke="transparent" points="344.5,-109 344.5,-130 434.5,-130 434.5,-109 344.5,-109"/>
<polygon fill="none" stroke="#000000" points="344.5,-109 344.5,-130 434.5,-130 434.5,-109 344.5,-109"/>
<text text-anchor="start" x="347.5" y="-115.8" font-family="Times,serif" font-size="14.00" fill="#000000">date</text>
<polygon fill="#01f800" stroke="transparent" points="434.5,-109 434.5,-130 498.5,-130 498.5,-109 434.5,-109"/>
<polygon fill="none" stroke="#000000" points="434.5,-109 434.5,-130 498.5,-130 498.5,-109 434.5,-109"/>
<text text-anchor="start" x="437.5" y="-115.8" font-family="Times,serif" font-size="14.00" fill="#000000">timestamp</text>
<polygon fill="#01f800" stroke="transparent" points="498.5,-109 498.5,-130 577.5,-130 577.5,-109 498.5,-109"/>
<polygon fill="none" stroke="#000000" points="498.5,-109 498.5,-130 577.5,-130 577.5,-109 498.5,-109"/>
<text text-anchor="start" x="543.5" y="-115.8" font-family="Times,serif" font-size="14.00" fill="#000000">[null]</text>
<polygon fill="#01f800" stroke="transparent" points="344.5,-88 344.5,-109 434.5,-109 434.5,-88 344.5,-88"/>
<polygon fill="none" stroke="#000000" points="344.5,-88 344.5,-109 434.5,-109 434.5,-88 344.5,-88"/>
<text text-anchor="start" x="347.5" y="-94.8" font-family="Times,serif" font-size="14.00" fill="#000000">tip</text>
<polygon fill="#01f800" stroke="transparent" points="434.5,-88 434.5,-109 498.5,-109 498.5,-88 434.5,-88"/>
<polygon fill="none" stroke="#000000" points="434.5,-88 434.5,-109 498.5,-109 498.5,-88 434.5,-88"/>
<text text-anchor="start" x="437.5" y="-94.8" font-family="Times,serif" font-size="14.00" fill="#000000">float</text>
<polygon fill="#01f800" stroke="transparent" points="498.5,-88 498.5,-109 577.5,-109 577.5,-88 498.5,-88"/>
<polygon fill="none" stroke="#000000" points="498.5,-88 498.5,-109 577.5,-109 577.5,-88 498.5,-88"/>
<text text-anchor="start" x="543.5" y="-94.8" font-family="Times,serif" font-size="14.00" fill="#000000">[null]</text>
<polygon fill="#01f800" stroke="transparent" points="344.5,-67 344.5,-88 434.5,-88 434.5,-67 344.5,-67"/>
<polygon fill="none" stroke="#000000" points="344.5,-67 344.5,-88 434.5,-88 434.5,-67 344.5,-67"/>
<text text-anchor="start" x="347.5" y="-73.8" font-family="Times,serif" font-size="14.00" fill="#000000">fees</text>
<polygon fill="#01f800" stroke="transparent" points="434.5,-67 434.5,-88 498.5,-88 498.5,-67 434.5,-67"/>
<polygon fill="none" stroke="#000000" points="434.5,-67 434.5,-88 498.5,-88 498.5,-67 434.5,-67"/>
<text text-anchor="start" x="437.5" y="-73.8" font-family="Times,serif" font-size="14.00" fill="#000000">float</text>
<polygon fill="#01f800" stroke="transparent" points="498.5,-67 498.5,-88 577.5,-88 577.5,-67 498.5,-67"/>
<polygon fill="none" stroke="#000000" points="498.5,-67 498.5,-88 577.5,-88 577.5,-67 498.5,-67"/>
<text text-anchor="start" x="543.5" y="-73.8" font-family="Times,serif" font-size="14.00" fill="#000000">[null]</text>
<polygon fill="#01f800" stroke="transparent" points="344.5,-46 344.5,-67 434.5,-67 434.5,-46 344.5,-46"/>
<polygon fill="none" stroke="#000000" points="344.5,-46 344.5,-67 434.5,-67 434.5,-46 344.5,-46"/>
<text text-anchor="start" x="347.5" y="-52.8" font-family="Times,serif" font-size="14.00" fill="#000000">tax</text>
<polygon fill="#01f800" stroke="transparent" points="434.5,-46 434.5,-67 498.5,-67 498.5,-46 434.5,-46"/>
<polygon fill="none" stroke="#000000" points="434.5,-46 434.5,-67 498.5,-67 498.5,-46 434.5,-46"/>
<text text-anchor="start" x="437.5" y="-52.8" font-family="Times,serif" font-size="14.00" fill="#000000">float</text>
<polygon fill="#01f800" stroke="transparent" points="498.5,-46 498.5,-67 577.5,-67 577.5,-46 498.5,-46"/>
<polygon fill="none" stroke="#000000" points="498.5,-46 498.5,-67 577.5,-67 577.5,-46 498.5,-46"/>
<text text-anchor="start" x="543.5" y="-52.8" font-family="Times,serif" font-size="14.00" fill="#000000">[null]</text>
<polygon fill="#01f800" stroke="transparent" points="344.5,-25 344.5,-46 434.5,-46 434.5,-25 344.5,-25"/>
<polygon fill="none" stroke="#000000" points="344.5,-25 344.5,-46 434.5,-46 434.5,-25 344.5,-25"/>
<text text-anchor="start" x="347.5" y="-31.8" font-family="Times,serif" font-size="14.00" fill="#000000">food_sum</text>
<polygon fill="#01f800" stroke="transparent" points="434.5,-25 434.5,-46 498.5,-46 498.5,-25 434.5,-25"/>
<polygon fill="none" stroke="#000000" points="434.5,-25 434.5,-46 498.5,-46 498.5,-25 434.5,-25"/>
<text text-anchor="start" x="437.5" y="-31.8" font-family="Times,serif" font-size="14.00" fill="#000000">float</text>
<polygon fill="#01f800" stroke="transparent" points="498.5,-25 498.5,-46 577.5,-46 577.5,-25 498.5,-25"/>
<polygon fill="none" stroke="#000000" points="498.5,-25 498.5,-46 577.5,-46 577.5,-25 498.5,-25"/>
<text text-anchor="start" x="522.5" y="-31.8" font-family="Times,serif" font-size="14.00" fill="#000000">[not null]</text>
<polygon fill="#01f800" stroke="transparent" points="344.5,-4 344.5,-25 434.5,-25 434.5,-4 344.5,-4"/>
<polygon fill="none" stroke="#000000" points="344.5,-4 344.5,-25 434.5,-25 434.5,-4 344.5,-4"/>
<text text-anchor="start" x="347.5" y="-10.8" font-family="Times,serif" font-size="14.00" fill="#000000">venmo_request</text>
<polygon fill="#01f800" stroke="transparent" points="434.5,-4 434.5,-25 498.5,-25 498.5,-4 434.5,-4"/>
<polygon fill="none" stroke="#000000" points="434.5,-4 434.5,-25 498.5,-25 498.5,-4 434.5,-4"/>
<text text-anchor="start" x="437.5" y="-10.8" font-family="Times,serif" font-size="14.00" fill="#000000">float</text>
<polygon fill="#01f800" stroke="transparent" points="498.5,-4 498.5,-25 577.5,-25 577.5,-4 498.5,-4"/>
<polygon fill="none" stroke="#000000" points="498.5,-4 498.5,-25 577.5,-25 577.5,-4 498.5,-4"/>
<text text-anchor="start" x="522.5" y="-10.8" font-family="Times,serif" font-size="14.00" fill="#000000">[not null]</text>
</a>
</g>
</g>
<!-- 18984&#45;&gt;18985 -->
<g id="edge1" class="edge">
<title>18984:right205163&#45;&gt;18985:left205168</title>
<g id="a_edge1"><a xlink:href="javascript:window.parent.edit_relationship('/projects/1462/relationships/76636/edit');" xlink:title="many">
<path fill="none" stroke="#000000" d="M577.5,-162C610.5859,-162 621.2807,-162 649.9934,-162"/>
<polygon fill="#000000" stroke="#000000" points="650,-165.5001 660,-162 650,-158.5001 650,-165.5001"/>
</a>
</g>
<g id="a_edge1&#45;label"><a xlink:href="javascript:window.parent.edit_relationship('/projects/1462/relationships/76636/edit');" xlink:title="many">
<text text-anchor="middle" x="618.5" y="-165.8" font-family="Times,serif" font-size="14.00" fill="#000000">many</text>
</a>
</g>
</g>
<!-- 18983 -->
<g id="node3" class="node">
<title>18983</title>
<g id="a_node3"><a xlink:href="javascript:window.parent.edit_table('/projects/1462/tables/18983/edit');" xlink:title="&lt;TABLE&gt;">
<polygon fill="#ececfc" stroke="transparent" points="8.5,-151 8.5,-185 261.5,-185 261.5,-151 8.5,-151"/>
<polygon fill="none" stroke="#000000" points="8.5,-151 8.5,-185 261.5,-185 261.5,-151 8.5,-151"/>
<text text-anchor="start" x="119.5" y="-171.8" font-family="Times,serif" font-weight="bold" font-size="14.00" fill="#000000">users</text>
<text text-anchor="start" x="60.5" y="-157.8" font-family="Times,serif" font-weight="bold" font-size="14.00" fill="#000000">table of all names and ids</text>
<polygon fill="#01f800" stroke="transparent" points="8.5,-130 8.5,-151 73.5,-151 73.5,-130 8.5,-130"/>
<polygon fill="none" stroke="#000000" points="8.5,-130 8.5,-151 73.5,-151 73.5,-130 8.5,-130"/>
<text text-anchor="start" x="11.5" y="-136.8" font-family="Times,serif" font-size="14.00" fill="#000000">id</text>
<polygon fill="#01f800" stroke="transparent" points="73.5,-130 73.5,-151 120.5,-151 120.5,-130 73.5,-130"/>
<polygon fill="none" stroke="#000000" points="73.5,-130 73.5,-151 120.5,-151 120.5,-130 73.5,-130"/>
<text text-anchor="start" x="76.5" y="-136.8" font-family="Times,serif" font-size="14.00" fill="#000000">integer</text>
<polygon fill="#01f800" stroke="transparent" points="120.5,-130 120.5,-151 261.5,-151 261.5,-130 120.5,-130"/>
<polygon fill="none" stroke="#000000" points="120.5,-130 120.5,-151 261.5,-151 261.5,-130 120.5,-130"/>
<text text-anchor="start" x="123.5" y="-136.8" font-family="Times,serif" font-size="14.00" fill="#000000">[pk, increment, not null]</text>
<polygon fill="#01f800" stroke="transparent" points="8.5,-109 8.5,-130 73.5,-130 73.5,-109 8.5,-109"/>
<polygon fill="none" stroke="#000000" points="8.5,-109 8.5,-130 73.5,-130 73.5,-109 8.5,-109"/>
<text text-anchor="start" x="11.5" y="-115.8" font-family="Times,serif" font-size="14.00" fill="#000000">name</text>
<polygon fill="#01f800" stroke="transparent" points="73.5,-109 73.5,-130 120.5,-130 120.5,-109 73.5,-109"/>
<polygon fill="none" stroke="#000000" points="73.5,-109 73.5,-130 120.5,-130 120.5,-109 73.5,-109"/>
<text text-anchor="start" x="76.5" y="-115.8" font-family="Times,serif" font-size="14.00" fill="#000000">varchar</text>
<polygon fill="#01f800" stroke="transparent" points="120.5,-109 120.5,-130 261.5,-130 261.5,-109 120.5,-109"/>
<polygon fill="none" stroke="#000000" points="120.5,-109 120.5,-130 261.5,-130 261.5,-109 120.5,-109"/>
<text text-anchor="start" x="227.5" y="-115.8" font-family="Times,serif" font-size="14.00" fill="#000000">[null]</text>
<polygon fill="#01f800" stroke="transparent" points="8.5,-88 8.5,-109 73.5,-109 73.5,-88 8.5,-88"/>
<polygon fill="none" stroke="#000000" points="8.5,-88 8.5,-109 73.5,-109 73.5,-88 8.5,-88"/>
<text text-anchor="start" x="11.5" y="-94.8" font-family="Times,serif" font-size="14.00" fill="#000000">nicknames</text>
<polygon fill="#01f800" stroke="transparent" points="73.5,-88 73.5,-109 120.5,-109 120.5,-88 73.5,-88"/>
<polygon fill="none" stroke="#000000" points="73.5,-88 73.5,-109 120.5,-109 120.5,-88 73.5,-88"/>
<text text-anchor="start" x="76.5" y="-94.8" font-family="Times,serif" font-size="14.00" fill="#000000">varchar</text>
<polygon fill="#01f800" stroke="transparent" points="120.5,-88 120.5,-109 261.5,-109 261.5,-88 120.5,-88"/>
<polygon fill="none" stroke="#000000" points="120.5,-88 120.5,-109 261.5,-109 261.5,-88 120.5,-88"/>
<text text-anchor="start" x="227.5" y="-94.8" font-family="Times,serif" font-size="14.00" fill="#000000">[null]</text>
<polygon fill="#01f800" stroke="transparent" points="8.5,-67 8.5,-88 73.5,-88 73.5,-67 8.5,-67"/>
<polygon fill="none" stroke="#000000" points="8.5,-67 8.5,-88 73.5,-88 73.5,-67 8.5,-67"/>
<text text-anchor="start" x="11.5" y="-73.8" font-family="Times,serif" font-size="14.00" fill="#000000">venmo_id</text>
<polygon fill="#01f800" stroke="transparent" points="73.5,-67 73.5,-88 120.5,-88 120.5,-67 73.5,-67"/>
<polygon fill="none" stroke="#000000" points="73.5,-67 73.5,-88 120.5,-88 120.5,-67 73.5,-67"/>
<text text-anchor="start" x="76.5" y="-73.8" font-family="Times,serif" font-size="14.00" fill="#000000">varchar</text>
<polygon fill="#01f800" stroke="transparent" points="120.5,-67 120.5,-88 261.5,-88 261.5,-67 120.5,-67"/>
<polygon fill="none" stroke="#000000" points="120.5,-67 120.5,-88 261.5,-88 261.5,-67 120.5,-67"/>
<text text-anchor="start" x="206.5" y="-73.8" font-family="Times,serif" font-size="14.00" fill="#000000">[not null]</text>
</a>
</g>
</g>
<!-- 18983&#45;&gt;18984 -->
<g id="edge2" class="edge">
<title>18983:right205160&#45;&gt;18984:left205164</title>
<g id="a_edge2"><a xlink:href="javascript:window.parent.edit_relationship('/projects/1462/relationships/76635/edit');" xlink:title="many">
<path fill="none" stroke="#000000" d="M261.5,-141C294.7865,-141 305.546,-141 334.4327,-141"/>
<polygon fill="#000000" stroke="#000000" points="334.5,-144.5001 344.5,-141 334.5,-137.5001 334.5,-144.5001"/>
</a>
</g>
<g id="a_edge2&#45;label"><a xlink:href="javascript:window.parent.edit_relationship('/projects/1462/relationships/76635/edit');" xlink:title="many">
<text text-anchor="middle" x="302.5" y="-144.8" font-family="Times,serif" font-size="14.00" fill="#000000">many</text>
</a>
</g>
</g>
</g>
</svg>
