<?xml version="1.0" encoding="UTF-8" standalone="no"?>
<!DOCTYPE svg PUBLIC "-//W3C//DTD SVG 1.1//EN"
 "http://www.w3.org/Graphics/SVG/1.1/DTD/svg11.dtd">
<!-- Generated by graphviz version 2.40.1 (20161225.0304)
 -->
<!-- Title: payme Pages: 1 -->
<svg width="1207pt" height="218pt"
 viewBox="0.00 0.00 1207.00 218.00" xmlns="http://www.w3.org/2000/svg" xmlns:xlink="http://www.w3.org/1999/xlink">
<g id="graph0" class="graph" transform="scale(1 1) rotate(0) translate(4 214)">
<title>payme</title>
<polygon fill="#f7f8f9" stroke="transparent" points="-4,4 -4,-214 1203,-214 1203,4 -4,4"/>
<!-- 18995 -->
<g id="node1" class="node">
<title>18995</title>
<g id="a_node1"><a xlink:href="javascript:window.parent.edit_table('/projects/1462/tables/18995/edit');" xlink:title="&lt;TABLE&gt;">
<polygon fill="#ececfc" stroke="transparent" points="8.5,-152 8.5,-186 217.5,-186 217.5,-152 8.5,-152"/>
<polygon fill="none" stroke="#000000" points="8.5,-152 8.5,-186 217.5,-186 217.5,-152 8.5,-152"/>
<text text-anchor="start" x="96" y="-172.8" font-family="Times,serif" font-weight="bold" font-size="14.00" fill="#000000">secret</text>
<text text-anchor="start" x="11.5" y="-158.8" font-family="Times,serif" font-weight="bold" font-size="14.00" fill="#000000">encrypted storage of venmo tokens</text>
<polygon fill="#01f800" stroke="transparent" points="8.5,-131 8.5,-152 78.5,-152 78.5,-131 8.5,-131"/>
<polygon fill="none" stroke="#000000" points="8.5,-131 8.5,-152 78.5,-152 78.5,-131 8.5,-131"/>
<text text-anchor="start" x="11.5" y="-137.8" font-family="Times,serif" font-size="14.00" fill="#000000">id</text>
<polygon fill="#01f800" stroke="transparent" points="78.5,-131 78.5,-152 142.5,-152 142.5,-131 78.5,-131"/>
<polygon fill="none" stroke="#000000" points="78.5,-131 78.5,-152 142.5,-152 142.5,-131 78.5,-131"/>
<text text-anchor="start" x="81.5" y="-137.8" font-family="Times,serif" font-size="14.00" fill="#000000">integer</text>
<polygon fill="#01f800" stroke="transparent" points="142.5,-131 142.5,-152 217.5,-152 217.5,-131 142.5,-131"/>
<polygon fill="none" stroke="#000000" points="142.5,-131 142.5,-152 217.5,-152 217.5,-131 142.5,-131"/>
<text text-anchor="start" x="162.5" y="-137.8" font-family="Times,serif" font-size="14.00" fill="#000000">[not null]</text>
<polygon fill="#01f800" stroke="transparent" points="8.5,-110 8.5,-131 78.5,-131 78.5,-110 8.5,-110"/>
<polygon fill="none" stroke="#000000" points="8.5,-110 8.5,-131 78.5,-131 78.5,-110 8.5,-110"/>
<text text-anchor="start" x="11.5" y="-116.8" font-family="Times,serif" font-size="14.00" fill="#000000">token</text>
<polygon fill="#01f800" stroke="transparent" points="78.5,-110 78.5,-131 142.5,-131 142.5,-110 78.5,-110"/>
<polygon fill="none" stroke="#000000" points="78.5,-110 78.5,-131 142.5,-131 142.5,-110 78.5,-110"/>
<text text-anchor="start" x="81.5" y="-116.8" font-family="Times,serif" font-size="14.00" fill="#000000">varchar</text>
<polygon fill="#01f800" stroke="transparent" points="142.5,-110 142.5,-131 217.5,-131 217.5,-110 142.5,-110"/>
<polygon fill="none" stroke="#000000" points="142.5,-110 142.5,-131 217.5,-131 217.5,-110 142.5,-110"/>
<text text-anchor="start" x="162.5" y="-116.8" font-family="Times,serif" font-size="14.00" fill="#000000">[not null]</text>
</a>
</g>
</g>
<!-- 18983 -->
<g id="node4" class="node">
<title>18983</title>
<g id="a_node4"><a xlink:href="javascript:window.parent.edit_table('/projects/1462/tables/18983/edit');" xlink:title="&lt;TABLE&gt;">
<polygon fill="#ececfc" stroke="transparent" points="289.5,-151 289.5,-185 542.5,-185 542.5,-151 289.5,-151"/>
<polygon fill="none" stroke="#000000" points="289.5,-151 289.5,-185 542.5,-185 542.5,-151 289.5,-151"/>
<text text-anchor="start" x="400.5" y="-171.8" font-family="Times,serif" font-weight="bold" font-size="14.00" fill="#000000">users</text>
<text text-anchor="start" x="341.5" y="-157.8" font-family="Times,serif" font-weight="bold" font-size="14.00" fill="#000000">table of all names and ids</text>
<polygon fill="#01f800" stroke="transparent" points="289.5,-130 289.5,-151 354.5,-151 354.5,-130 289.5,-130"/>
<polygon fill="none" stroke="#000000" points="289.5,-130 289.5,-151 354.5,-151 354.5,-130 289.5,-130"/>
<text text-anchor="start" x="292.5" y="-136.8" font-family="Times,serif" font-size="14.00" fill="#000000">id</text>
<polygon fill="#01f800" stroke="transparent" points="354.5,-130 354.5,-151 401.5,-151 401.5,-130 354.5,-130"/>
<polygon fill="none" stroke="#000000" points="354.5,-130 354.5,-151 401.5,-151 401.5,-130 354.5,-130"/>
<text text-anchor="start" x="357.5" y="-136.8" font-family="Times,serif" font-size="14.00" fill="#000000">integer</text>
<polygon fill="#01f800" stroke="transparent" points="401.5,-130 401.5,-151 542.5,-151 542.5,-130 401.5,-130"/>
<polygon fill="none" stroke="#000000" points="401.5,-130 401.5,-151 542.5,-151 542.5,-130 401.5,-130"/>
<text text-anchor="start" x="404.5" y="-136.8" font-family="Times,serif" font-size="14.00" fill="#000000">[pk, increment, not null]</text>
<polygon fill="#01f800" stroke="transparent" points="289.5,-109 289.5,-130 354.5,-130 354.5,-109 289.5,-109"/>
<polygon fill="none" stroke="#000000" points="289.5,-109 289.5,-130 354.5,-130 354.5,-109 289.5,-109"/>
<text text-anchor="start" x="292.5" y="-115.8" font-family="Times,serif" font-size="14.00" fill="#000000">name</text>
<polygon fill="#01f800" stroke="transparent" points="354.5,-109 354.5,-130 401.5,-130 401.5,-109 354.5,-109"/>
<polygon fill="none" stroke="#000000" points="354.5,-109 354.5,-130 401.5,-130 401.5,-109 354.5,-109"/>
<text text-anchor="start" x="357.5" y="-115.8" font-family="Times,serif" font-size="14.00" fill="#000000">varchar</text>
<polygon fill="#01f800" stroke="transparent" points="401.5,-109 401.5,-130 542.5,-130 542.5,-109 401.5,-109"/>
<polygon fill="none" stroke="#000000" points="401.5,-109 401.5,-130 542.5,-130 542.5,-109 401.5,-109"/>
<text text-anchor="start" x="508.5" y="-115.8" font-family="Times,serif" font-size="14.00" fill="#000000">[null]</text>
<polygon fill="#01f800" stroke="transparent" points="289.5,-88 289.5,-109 354.5,-109 354.5,-88 289.5,-88"/>
<polygon fill="none" stroke="#000000" points="289.5,-88 289.5,-109 354.5,-109 354.5,-88 289.5,-88"/>
<text text-anchor="start" x="292.5" y="-94.8" font-family="Times,serif" font-size="14.00" fill="#000000">nicknames</text>
<polygon fill="#01f800" stroke="transparent" points="354.5,-88 354.5,-109 401.5,-109 401.5,-88 354.5,-88"/>
<polygon fill="none" stroke="#000000" points="354.5,-88 354.5,-109 401.5,-109 401.5,-88 354.5,-88"/>
<text text-anchor="start" x="357.5" y="-94.8" font-family="Times,serif" font-size="14.00" fill="#000000">varchar</text>
<polygon fill="#01f800" stroke="transparent" points="401.5,-88 401.5,-109 542.5,-109 542.5,-88 401.5,-88"/>
<polygon fill="none" stroke="#000000" points="401.5,-88 401.5,-109 542.5,-109 542.5,-88 401.5,-88"/>
<text text-anchor="start" x="508.5" y="-94.8" font-family="Times,serif" font-size="14.00" fill="#000000">[null]</text>
</a>
</g>
</g>
<!-- 18995&#45;&gt;18983 -->
<g id="edge1" class="edge">
<title>18995:right205274&#45;&gt;18983:left205160</title>
<g id="a_edge1"><a xlink:href="javascript:window.parent.edit_relationship('/projects/1462/relationships/76644/edit');" xlink:title="one">
<path fill="none" stroke="#000000" d="M217.5,-141C245.875,-141 255.3795,-141 279.4792,-141"/>
<polygon fill="#000000" stroke="#000000" points="279.5,-144.5001 289.5,-141 279.5,-137.5001 279.5,-144.5001"/>
</a>
</g>
<g id="a_edge1&#45;label"><a xlink:href="javascript:window.parent.edit_relationship('/projects/1462/relationships/76644/edit');" xlink:title="one">
<text text-anchor="middle" x="253" y="-144.8" font-family="Times,serif" font-size="14.00" fill="#000000">one</text>
</a>
</g>
</g>
<!-- 18985 -->
<g id="node2" class="node">
<title>18985</title>
<g id="a_node2"><a xlink:href="javascript:window.parent.edit_table('/projects/1462/tables/18985/edit');" xlink:title="&lt;TABLE&gt;">
<polygon fill="#ececfc" stroke="transparent" points="941,-172 941,-206 1191,-206 1191,-172 941,-172"/>
<polygon fill="none" stroke="#000000" points="941,-172 941,-206 1191,-206 1191,-172 941,-172"/>
<text text-anchor="start" x="1030.5" y="-192.8" font-family="Times,serif" font-weight="bold" font-size="14.00" fill="#000000">transactions</text>
<text text-anchor="start" x="989" y="-178.8" font-family="Times,serif" font-weight="bold" font-size="14.00" fill="#000000">itemized list of food prices</text>
<polygon fill="#01f800" stroke="transparent" points="941,-151 941,-172 1006,-172 1006,-151 941,-151"/>
<polygon fill="none" stroke="#000000" points="941,-151 941,-172 1006,-172 1006,-151 941,-151"/>
<text text-anchor="start" x="944" y="-157.8" font-family="Times,serif" font-size="14.00" fill="#000000">group_id</text>
<polygon fill="#01f800" stroke="transparent" points="1006,-151 1006,-172 1050,-172 1050,-151 1006,-151"/>
<polygon fill="none" stroke="#000000" points="1006,-151 1006,-172 1050,-172 1050,-151 1006,-151"/>
<text text-anchor="start" x="1009" y="-157.8" font-family="Times,serif" font-size="14.00" fill="#000000">integer</text>
<polygon fill="#01f800" stroke="transparent" points="1050,-151 1050,-172 1191,-172 1191,-151 1050,-151"/>
<polygon fill="none" stroke="#000000" points="1050,-151 1050,-172 1191,-172 1191,-151 1050,-151"/>
<text text-anchor="start" x="1136" y="-157.8" font-family="Times,serif" font-size="14.00" fill="#000000">[not null]</text>
<polygon fill="#01f800" stroke="transparent" points="941,-130 941,-151 1006,-151 1006,-130 941,-130"/>
<polygon fill="none" stroke="#000000" points="941,-130 941,-151 1006,-151 1006,-130 941,-130"/>
<text text-anchor="start" x="944" y="-136.8" font-family="Times,serif" font-size="14.00" fill="#000000">id</text>
<polygon fill="#01f800" stroke="transparent" points="1006,-130 1006,-151 1050,-151 1050,-130 1006,-130"/>
<polygon fill="none" stroke="#000000" points="1006,-130 1006,-151 1050,-151 1050,-130 1006,-130"/>
<text text-anchor="start" x="1009" y="-136.8" font-family="Times,serif" font-size="14.00" fill="#000000">integer</text>
<polygon fill="#01f800" stroke="transparent" points="1050,-130 1050,-151 1191,-151 1191,-130 1050,-130"/>
<polygon fill="none" stroke="#000000" points="1050,-130 1050,-151 1191,-151 1191,-130 1050,-130"/>
<text text-anchor="start" x="1136" y="-136.8" font-family="Times,serif" font-size="14.00" fill="#000000">[not null]</text>
<polygon fill="#01f800" stroke="transparent" points="941,-109 941,-130 1006,-130 1006,-109 941,-109"/>
<polygon fill="none" stroke="#000000" points="941,-109 941,-130 1006,-130 1006,-109 941,-109"/>
<text text-anchor="start" x="944" y="-115.8" font-family="Times,serif" font-size="14.00" fill="#000000">txn_id</text>
<polygon fill="#01f800" stroke="transparent" points="1006,-109 1006,-130 1050,-130 1050,-109 1006,-109"/>
<polygon fill="none" stroke="#000000" points="1006,-109 1006,-130 1050,-130 1050,-109 1006,-109"/>
<text text-anchor="start" x="1009" y="-115.8" font-family="Times,serif" font-size="14.00" fill="#000000">integer</text>
<polygon fill="#01f800" stroke="transparent" points="1050,-109 1050,-130 1191,-130 1191,-109 1050,-109"/>
<polygon fill="none" stroke="#000000" points="1050,-109 1050,-130 1191,-130 1191,-109 1050,-109"/>
<text text-anchor="start" x="1053" y="-115.8" font-family="Times,serif" font-size="14.00" fill="#000000">[pk, increment, not null]</text>
<polygon fill="#01f800" stroke="transparent" points="941,-88 941,-109 1006,-109 1006,-88 941,-88"/>
<polygon fill="none" stroke="#000000" points="941,-88 941,-109 1006,-109 1006,-88 941,-88"/>
<text text-anchor="start" x="944" y="-94.8" font-family="Times,serif" font-size="14.00" fill="#000000">food_price</text>
<polygon fill="#01f800" stroke="transparent" points="1006,-88 1006,-109 1050,-109 1050,-88 1006,-88"/>
<polygon fill="none" stroke="#000000" points="1006,-88 1006,-109 1050,-109 1050,-88 1006,-88"/>
<text text-anchor="start" x="1009" y="-94.8" font-family="Times,serif" font-size="14.00" fill="#000000">float</text>
<polygon fill="#01f800" stroke="transparent" points="1050,-88 1050,-109 1191,-109 1191,-88 1050,-88"/>
<polygon fill="none" stroke="#000000" points="1050,-88 1050,-109 1191,-109 1191,-88 1050,-88"/>
<text text-anchor="start" x="1136" y="-94.8" font-family="Times,serif" font-size="14.00" fill="#000000">[not null]</text>
</a>
</g>
</g>
<!-- 18984 -->
<g id="node3" class="node">
<title>18984</title>
<g id="a_node3"><a xlink:href="javascript:window.parent.edit_table('/projects/1462/tables/18984/edit');" xlink:title="&lt;TABLE&gt;">
<polygon fill="#ececfc" stroke="transparent" points="625.5,-172 625.5,-206 858.5,-206 858.5,-172 625.5,-172"/>
<polygon fill="none" stroke="#000000" points="625.5,-172 625.5,-206 858.5,-206 858.5,-172 625.5,-172"/>
<text text-anchor="start" x="713.5" y="-192.8" font-family="Times,serif" font-weight="bold" font-size="14.00" fill="#000000">summary</text>
<text text-anchor="start" x="669" y="-178.8" font-family="Times,serif" font-weight="bold" font-size="14.00" fill="#000000">summary of transactions</text>
<polygon fill="#01f800" stroke="transparent" points="625.5,-151 625.5,-172 715.5,-172 715.5,-151 625.5,-151"/>
<polygon fill="none" stroke="#000000" points="625.5,-151 625.5,-172 715.5,-172 715.5,-151 625.5,-151"/>
<text text-anchor="start" x="628.5" y="-157.8" font-family="Times,serif" font-size="14.00" fill="#000000">group_id</text>
<polygon fill="#01f800" stroke="transparent" points="715.5,-151 715.5,-172 779.5,-172 779.5,-151 715.5,-151"/>
<polygon fill="none" stroke="#000000" points="715.5,-151 715.5,-172 779.5,-172 779.5,-151 715.5,-151"/>
<text text-anchor="start" x="718.5" y="-157.8" font-family="Times,serif" font-size="14.00" fill="#000000">integer</text>
<polygon fill="#01f800" stroke="transparent" points="779.5,-151 779.5,-172 858.5,-172 858.5,-151 779.5,-151"/>
<polygon fill="none" stroke="#000000" points="779.5,-151 779.5,-172 858.5,-172 858.5,-151 779.5,-151"/>
<text text-anchor="start" x="782.5" y="-157.8" font-family="Times,serif" font-size="14.00" fill="#000000">[pk, not null]</text>
<polygon fill="#01f800" stroke="transparent" points="625.5,-130 625.5,-151 715.5,-151 715.5,-130 625.5,-130"/>
<polygon fill="none" stroke="#000000" points="625.5,-130 625.5,-151 715.5,-151 715.5,-130 625.5,-130"/>
<text text-anchor="start" x="628.5" y="-136.8" font-family="Times,serif" font-size="14.00" fill="#000000">id</text>
<polygon fill="#01f800" stroke="transparent" points="715.5,-130 715.5,-151 779.5,-151 779.5,-130 715.5,-130"/>
<polygon fill="none" stroke="#000000" points="715.5,-130 715.5,-151 779.5,-151 779.5,-130 715.5,-130"/>
<text text-anchor="start" x="718.5" y="-136.8" font-family="Times,serif" font-size="14.00" fill="#000000">integer</text>
<polygon fill="#01f800" stroke="transparent" points="779.5,-130 779.5,-151 858.5,-151 858.5,-130 779.5,-130"/>
<polygon fill="none" stroke="#000000" points="779.5,-130 779.5,-151 858.5,-151 858.5,-130 779.5,-130"/>
<text text-anchor="start" x="803.5" y="-136.8" font-family="Times,serif" font-size="14.00" fill="#000000">[not null]</text>
<polygon fill="#01f800" stroke="transparent" points="625.5,-109 625.5,-130 715.5,-130 715.5,-109 625.5,-109"/>
<polygon fill="none" stroke="#000000" points="625.5,-109 625.5,-130 715.5,-130 715.5,-109 625.5,-109"/>
<text text-anchor="start" x="628.5" y="-115.8" font-family="Times,serif" font-size="14.00" fill="#000000">date</text>
<polygon fill="#01f800" stroke="transparent" points="715.5,-109 715.5,-130 779.5,-130 779.5,-109 715.5,-109"/>
<polygon fill="none" stroke="#000000" points="715.5,-109 715.5,-130 779.5,-130 779.5,-109 715.5,-109"/>
<text text-anchor="start" x="718.5" y="-115.8" font-family="Times,serif" font-size="14.00" fill="#000000">timestamp</text>
<polygon fill="#01f800" stroke="transparent" points="779.5,-109 779.5,-130 858.5,-130 858.5,-109 779.5,-109"/>
<polygon fill="none" stroke="#000000" points="779.5,-109 779.5,-130 858.5,-130 858.5,-109 779.5,-109"/>
<text text-anchor="start" x="824.5" y="-115.8" font-family="Times,serif" font-size="14.00" fill="#000000">[null]</text>
<polygon fill="#01f800" stroke="transparent" points="625.5,-88 625.5,-109 715.5,-109 715.5,-88 625.5,-88"/>
<polygon fill="none" stroke="#000000" points="625.5,-88 625.5,-109 715.5,-109 715.5,-88 625.5,-88"/>
<text text-anchor="start" x="628.5" y="-94.8" font-family="Times,serif" font-size="14.00" fill="#000000">tip</text>
<polygon fill="#01f800" stroke="transparent" points="715.5,-88 715.5,-109 779.5,-109 779.5,-88 715.5,-88"/>
<polygon fill="none" stroke="#000000" points="715.5,-88 715.5,-109 779.5,-109 779.5,-88 715.5,-88"/>
<text text-anchor="start" x="718.5" y="-94.8" font-family="Times,serif" font-size="14.00" fill="#000000">float</text>
<polygon fill="#01f800" stroke="transparent" points="779.5,-88 779.5,-109 858.5,-109 858.5,-88 779.5,-88"/>
<polygon fill="none" stroke="#000000" points="779.5,-88 779.5,-109 858.5,-109 858.5,-88 779.5,-88"/>
<text text-anchor="start" x="824.5" y="-94.8" font-family="Times,serif" font-size="14.00" fill="#000000">[null]</text>
<polygon fill="#01f800" stroke="transparent" points="625.5,-67 625.5,-88 715.5,-88 715.5,-67 625.5,-67"/>
<polygon fill="none" stroke="#000000" points="625.5,-67 625.5,-88 715.5,-88 715.5,-67 625.5,-67"/>
<text text-anchor="start" x="628.5" y="-73.8" font-family="Times,serif" font-size="14.00" fill="#000000">fees</text>
<polygon fill="#01f800" stroke="transparent" points="715.5,-67 715.5,-88 779.5,-88 779.5,-67 715.5,-67"/>
<polygon fill="none" stroke="#000000" points="715.5,-67 715.5,-88 779.5,-88 779.5,-67 715.5,-67"/>
<text text-anchor="start" x="718.5" y="-73.8" font-family="Times,serif" font-size="14.00" fill="#000000">float</text>
<polygon fill="#01f800" stroke="transparent" points="779.5,-67 779.5,-88 858.5,-88 858.5,-67 779.5,-67"/>
<polygon fill="none" stroke="#000000" points="779.5,-67 779.5,-88 858.5,-88 858.5,-67 779.5,-67"/>
<text text-anchor="start" x="824.5" y="-73.8" font-family="Times,serif" font-size="14.00" fill="#000000">[null]</text>
<polygon fill="#01f800" stroke="transparent" points="625.5,-46 625.5,-67 715.5,-67 715.5,-46 625.5,-46"/>
<polygon fill="none" stroke="#000000" points="625.5,-46 625.5,-67 715.5,-67 715.5,-46 625.5,-46"/>
<text text-anchor="start" x="628.5" y="-52.8" font-family="Times,serif" font-size="14.00" fill="#000000">tax</text>
<polygon fill="#01f800" stroke="transparent" points="715.5,-46 715.5,-67 779.5,-67 779.5,-46 715.5,-46"/>
<polygon fill="none" stroke="#000000" points="715.5,-46 715.5,-67 779.5,-67 779.5,-46 715.5,-46"/>
<text text-anchor="start" x="718.5" y="-52.8" font-family="Times,serif" font-size="14.00" fill="#000000">float</text>
<polygon fill="#01f800" stroke="transparent" points="779.5,-46 779.5,-67 858.5,-67 858.5,-46 779.5,-46"/>
<polygon fill="none" stroke="#000000" points="779.5,-46 779.5,-67 858.5,-67 858.5,-46 779.5,-46"/>
<text text-anchor="start" x="824.5" y="-52.8" font-family="Times,serif" font-size="14.00" fill="#000000">[null]</text>
<polygon fill="#01f800" stroke="transparent" points="625.5,-25 625.5,-46 715.5,-46 715.5,-25 625.5,-25"/>
<polygon fill="none" stroke="#000000" points="625.5,-25 625.5,-46 715.5,-46 715.5,-25 625.5,-25"/>
<text text-anchor="start" x="628.5" y="-31.8" font-family="Times,serif" font-size="14.00" fill="#000000">food_sum</text>
<polygon fill="#01f800" stroke="transparent" points="715.5,-25 715.5,-46 779.5,-46 779.5,-25 715.5,-25"/>
<polygon fill="none" stroke="#000000" points="715.5,-25 715.5,-46 779.5,-46 779.5,-25 715.5,-25"/>
<text text-anchor="start" x="718.5" y="-31.8" font-family="Times,serif" font-size="14.00" fill="#000000">float</text>
<polygon fill="#01f800" stroke="transparent" points="779.5,-25 779.5,-46 858.5,-46 858.5,-25 779.5,-25"/>
<polygon fill="none" stroke="#000000" points="779.5,-25 779.5,-46 858.5,-46 858.5,-25 779.5,-25"/>
<text text-anchor="start" x="803.5" y="-31.8" font-family="Times,serif" font-size="14.00" fill="#000000">[not null]</text>
<polygon fill="#01f800" stroke="transparent" points="625.5,-4 625.5,-25 715.5,-25 715.5,-4 625.5,-4"/>
<polygon fill="none" stroke="#000000" points="625.5,-4 625.5,-25 715.5,-25 715.5,-4 625.5,-4"/>
<text text-anchor="start" x="628.5" y="-10.8" font-family="Times,serif" font-size="14.00" fill="#000000">venmo_request</text>
<polygon fill="#01f800" stroke="transparent" points="715.5,-4 715.5,-25 779.5,-25 779.5,-4 715.5,-4"/>
<polygon fill="none" stroke="#000000" points="715.5,-4 715.5,-25 779.5,-25 779.5,-4 715.5,-4"/>
<text text-anchor="start" x="718.5" y="-10.8" font-family="Times,serif" font-size="14.00" fill="#000000">float</text>
<polygon fill="#01f800" stroke="transparent" points="779.5,-4 779.5,-25 858.5,-25 858.5,-4 779.5,-4"/>
<polygon fill="none" stroke="#000000" points="779.5,-4 779.5,-25 858.5,-25 858.5,-4 779.5,-4"/>
<text text-anchor="start" x="803.5" y="-10.8" font-family="Times,serif" font-size="14.00" fill="#000000">[not null]</text>
</a>
</g>
</g>
<!-- 18984&#45;&gt;18985 -->
<g id="edge2" class="edge">
<title>18984:right205163&#45;&gt;18985:left205168</title>
<g id="a_edge2"><a xlink:href="javascript:window.parent.edit_relationship('/projects/1462/relationships/76636/edit');" xlink:title="many">
<path fill="none" stroke="#000000" d="M858.5,-162C891.5859,-162 902.2807,-162 930.9934,-162"/>
<polygon fill="#000000" stroke="#000000" points="931,-165.5001 941,-162 931,-158.5001 931,-165.5001"/>
</a>
</g>
<g id="a_edge2&#45;label"><a xlink:href="javascript:window.parent.edit_relationship('/projects/1462/relationships/76636/edit');" xlink:title="many">
<text text-anchor="middle" x="899.5" y="-165.8" font-family="Times,serif" font-size="14.00" fill="#000000">many</text>
</a>
</g>
</g>
<!-- 18983&#45;&gt;18984 -->
<g id="edge3" class="edge">
<title>18983:right205160&#45;&gt;18984:left205164</title>
<g id="a_edge3"><a xlink:href="javascript:window.parent.edit_relationship('/projects/1462/relationships/76635/edit');" xlink:title="many">
<path fill="none" stroke="#000000" d="M542.5,-141C575.7865,-141 586.546,-141 615.4327,-141"/>
<polygon fill="#000000" stroke="#000000" points="615.5,-144.5001 625.5,-141 615.5,-137.5001 615.5,-144.5001"/>
</a>
</g>
<g id="a_edge3&#45;label"><a xlink:href="javascript:window.parent.edit_relationship('/projects/1462/relationships/76635/edit');" xlink:title="many">
<text text-anchor="middle" x="583.5" y="-144.8" font-family="Times,serif" font-size="14.00" fill="#000000">many</text>
</a>
</g>
</g>
</g>
</svg>
