<?xml version="1.0" encoding="UTF-8" standalone="no"?>
<!DOCTYPE svg PUBLIC "-//W3C//DTD SVG 1.1//EN"
 "http://www.w3.org/Graphics/SVG/1.1/DTD/svg11.dtd">
<!-- Generated by graphviz version 2.40.1 (20161225.0304)
 -->
<!-- Title: payme Pages: 1 -->
<svg width="926pt" height="426pt"
 viewBox="0.00 0.00 926.00 425.50" xmlns="http://www.w3.org/2000/svg" xmlns:xlink="http://www.w3.org/1999/xlink">
<g id="graph0" class="graph" transform="scale(1 1) rotate(0) translate(4 421.5)">
<title>payme</title>
<polygon fill="#f7f8f9" stroke="transparent" points="-4,4 -4,-421.5 922,-421.5 922,4 -4,4"/>
<!-- 18999 -->
<g id="node1" class="node">
<title>18999</title>
<g id="a_node1"><a xlink:href="javascript:window.parent.edit_table('/projects/1462/tables/18999/edit');" xlink:title="&lt;TABLE&gt;">
<polygon fill="#ececfc" stroke="transparent" points="21.5,-112 21.5,-146 247.5,-146 247.5,-112 21.5,-112"/>
<polygon fill="none" stroke="#000000" points="21.5,-112 21.5,-146 247.5,-146 247.5,-112 21.5,-112"/>
<text text-anchor="start" x="97" y="-132.8" font-family="Times,serif" font-weight="bold" font-size="14.00" fill="#000000">preapproved</text>
<text text-anchor="start" x="24.5" y="-118.8" font-family="Times,serif" font-weight="bold" font-size="14.00" fill="#000000">users who are preapproved to sign up</text>
<polygon fill="#01f800" stroke="transparent" points="21.5,-91 21.5,-112 114.5,-112 114.5,-91 21.5,-91"/>
<polygon fill="none" stroke="#000000" points="21.5,-91 21.5,-112 114.5,-112 114.5,-91 21.5,-91"/>
<text text-anchor="start" x="24.5" y="-97.8" font-family="Times,serif" font-size="14.00" fill="#000000">id</text>
<polygon fill="#01f800" stroke="transparent" points="114.5,-91 114.5,-112 164.5,-112 164.5,-91 114.5,-91"/>
<polygon fill="none" stroke="#000000" points="114.5,-91 114.5,-112 164.5,-112 164.5,-91 114.5,-91"/>
<text text-anchor="start" x="117.5" y="-97.8" font-family="Times,serif" font-size="14.00" fill="#000000">integer</text>
<polygon fill="#01f800" stroke="transparent" points="164.5,-91 164.5,-112 247.5,-112 247.5,-91 164.5,-91"/>
<polygon fill="none" stroke="#000000" points="164.5,-91 164.5,-112 247.5,-112 247.5,-91 164.5,-91"/>
<text text-anchor="start" x="171.5" y="-97.8" font-family="Times,serif" font-size="14.00" fill="#000000">[pk, not null]</text>
<polygon fill="#01f800" stroke="transparent" points="21.5,-70 21.5,-91 114.5,-91 114.5,-70 21.5,-70"/>
<polygon fill="none" stroke="#000000" points="21.5,-70 21.5,-91 114.5,-91 114.5,-70 21.5,-70"/>
<text text-anchor="start" x="24.5" y="-76.8" font-family="Times,serif" font-size="14.00" fill="#000000">invite_code</text>
<polygon fill="#01f800" stroke="transparent" points="114.5,-70 114.5,-91 164.5,-91 164.5,-70 114.5,-70"/>
<polygon fill="none" stroke="#000000" points="114.5,-70 114.5,-91 164.5,-91 164.5,-70 114.5,-70"/>
<text text-anchor="start" x="117.5" y="-76.8" font-family="Times,serif" font-size="14.00" fill="#000000">varchar</text>
<polygon fill="#01f800" stroke="transparent" points="164.5,-70 164.5,-91 247.5,-91 247.5,-70 164.5,-70"/>
<polygon fill="none" stroke="#000000" points="164.5,-70 164.5,-91 247.5,-91 247.5,-70 164.5,-70"/>
<text text-anchor="start" x="192.5" y="-76.8" font-family="Times,serif" font-size="14.00" fill="#000000">[not null]</text>
<polygon fill="#01f800" stroke="transparent" points="21.5,-49 21.5,-70 114.5,-70 114.5,-49 21.5,-49"/>
<polygon fill="none" stroke="#000000" points="21.5,-49 21.5,-70 114.5,-70 114.5,-49 21.5,-49"/>
<text text-anchor="start" x="24.5" y="-55.8" font-family="Times,serif" font-size="14.00" fill="#000000">nicknames</text>
<polygon fill="#01f800" stroke="transparent" points="114.5,-49 114.5,-70 164.5,-70 164.5,-49 114.5,-49"/>
<polygon fill="none" stroke="#000000" points="114.5,-49 114.5,-70 164.5,-70 164.5,-49 114.5,-49"/>
<text text-anchor="start" x="117.5" y="-55.8" font-family="Times,serif" font-size="14.00" fill="#000000">varchar</text>
<polygon fill="#01f800" stroke="transparent" points="164.5,-49 164.5,-70 247.5,-70 247.5,-49 164.5,-49"/>
<polygon fill="none" stroke="#000000" points="164.5,-49 164.5,-70 247.5,-70 247.5,-49 164.5,-49"/>
<text text-anchor="start" x="192.5" y="-55.8" font-family="Times,serif" font-size="14.00" fill="#000000">[not null]</text>
<polygon fill="#01f800" stroke="transparent" points="21.5,-28 21.5,-49 114.5,-49 114.5,-28 21.5,-28"/>
<polygon fill="none" stroke="#000000" points="21.5,-28 21.5,-49 114.5,-49 114.5,-28 21.5,-28"/>
<text text-anchor="start" x="24.5" y="-34.8" font-family="Times,serif" font-size="14.00" fill="#000000">venmo_numid</text>
<polygon fill="#01f800" stroke="transparent" points="114.5,-28 114.5,-49 164.5,-49 164.5,-28 114.5,-28"/>
<polygon fill="none" stroke="#000000" points="114.5,-28 114.5,-49 164.5,-49 164.5,-28 114.5,-28"/>
<text text-anchor="start" x="117.5" y="-34.8" font-family="Times,serif" font-size="14.00" fill="#000000">integer</text>
<polygon fill="#01f800" stroke="transparent" points="164.5,-28 164.5,-49 247.5,-49 247.5,-28 164.5,-28"/>
<polygon fill="none" stroke="#000000" points="164.5,-28 164.5,-49 247.5,-49 247.5,-28 164.5,-28"/>
<text text-anchor="start" x="192.5" y="-34.8" font-family="Times,serif" font-size="14.00" fill="#000000">[not null]</text>
</a>
</g>
</g>
<!-- 18995 -->
<g id="node2" class="node">
<title>18995</title>
<g id="a_node2"><a xlink:href="javascript:window.parent.edit_table('/projects/1462/tables/18995/edit');" xlink:title="&lt;TABLE&gt;">
<polygon fill="#ececfc" stroke="transparent" points="354.5,-379 354.5,-413 566.5,-413 566.5,-379 354.5,-379"/>
<polygon fill="none" stroke="#000000" points="354.5,-379 354.5,-413 566.5,-413 566.5,-379 354.5,-379"/>
<text text-anchor="start" x="443.5" y="-399.8" font-family="Times,serif" font-weight="bold" font-size="14.00" fill="#000000">secret</text>
<text text-anchor="start" x="359" y="-385.8" font-family="Times,serif" font-weight="bold" font-size="14.00" fill="#000000">encrypted storage of venmo tokens</text>
<polygon fill="#01f800" stroke="transparent" points="354.5,-358 354.5,-379 440.5,-379 440.5,-358 354.5,-358"/>
<polygon fill="none" stroke="#000000" points="354.5,-358 354.5,-379 440.5,-379 440.5,-358 354.5,-358"/>
<text text-anchor="start" x="357.5" y="-364.8" font-family="Times,serif" font-size="14.00" fill="#000000">id</text>
<polygon fill="#01f800" stroke="transparent" points="440.5,-358 440.5,-379 487.5,-379 487.5,-358 440.5,-358"/>
<polygon fill="none" stroke="#000000" points="440.5,-358 440.5,-379 487.5,-379 487.5,-358 440.5,-358"/>
<text text-anchor="start" x="443.5" y="-364.8" font-family="Times,serif" font-size="14.00" fill="#000000">integer</text>
<polygon fill="#01f800" stroke="transparent" points="487.5,-358 487.5,-379 566.5,-379 566.5,-358 487.5,-358"/>
<polygon fill="none" stroke="#000000" points="487.5,-358 487.5,-379 566.5,-379 566.5,-358 487.5,-358"/>
<text text-anchor="start" x="490.5" y="-364.8" font-family="Times,serif" font-size="14.00" fill="#000000">[pk, not null]</text>
<polygon fill="#01f800" stroke="transparent" points="354.5,-337 354.5,-358 440.5,-358 440.5,-337 354.5,-337"/>
<polygon fill="none" stroke="#000000" points="354.5,-337 354.5,-358 440.5,-358 440.5,-337 354.5,-337"/>
<text text-anchor="start" x="357.5" y="-343.8" font-family="Times,serif" font-size="14.00" fill="#000000">venmo_numid</text>
<polygon fill="#01f800" stroke="transparent" points="440.5,-337 440.5,-358 487.5,-358 487.5,-337 440.5,-337"/>
<polygon fill="none" stroke="#000000" points="440.5,-337 440.5,-358 487.5,-358 487.5,-337 440.5,-337"/>
<text text-anchor="start" x="443.5" y="-343.8" font-family="Times,serif" font-size="14.00" fill="#000000">integer</text>
<polygon fill="#01f800" stroke="transparent" points="487.5,-337 487.5,-358 566.5,-358 566.5,-337 487.5,-337"/>
<polygon fill="none" stroke="#000000" points="487.5,-337 487.5,-358 566.5,-358 566.5,-337 487.5,-337"/>
<text text-anchor="start" x="511.5" y="-343.8" font-family="Times,serif" font-size="14.00" fill="#000000">[not null]</text>
<polygon fill="#01f800" stroke="transparent" points="354.5,-316 354.5,-337 440.5,-337 440.5,-316 354.5,-316"/>
<polygon fill="none" stroke="#000000" points="354.5,-316 354.5,-337 440.5,-337 440.5,-316 354.5,-316"/>
<text text-anchor="start" x="357.5" y="-322.8" font-family="Times,serif" font-size="14.00" fill="#000000">access_token</text>
<polygon fill="#01f800" stroke="transparent" points="440.5,-316 440.5,-337 487.5,-337 487.5,-316 440.5,-316"/>
<polygon fill="none" stroke="#000000" points="440.5,-316 440.5,-337 487.5,-337 487.5,-316 440.5,-316"/>
<text text-anchor="start" x="443.5" y="-322.8" font-family="Times,serif" font-size="14.00" fill="#000000">varchar</text>
<polygon fill="#01f800" stroke="transparent" points="487.5,-316 487.5,-337 566.5,-337 566.5,-316 487.5,-316"/>
<polygon fill="none" stroke="#000000" points="487.5,-316 487.5,-337 566.5,-337 566.5,-316 487.5,-316"/>
<text text-anchor="start" x="511.5" y="-322.8" font-family="Times,serif" font-size="14.00" fill="#000000">[not null]</text>
</a>
</g>
</g>
<!-- 18985 -->
<g id="node3" class="node">
<title>18985</title>
<g id="a_node3"><a xlink:href="javascript:window.parent.edit_table('/projects/1462/tables/18985/edit');" xlink:title="&lt;TABLE&gt;">
<polygon fill="#ececfc" stroke="transparent" points="660,-88 660,-122 910,-122 910,-88 660,-88"/>
<polygon fill="none" stroke="#000000" points="660,-88 660,-122 910,-122 910,-88 660,-88"/>
<text text-anchor="start" x="749.5" y="-108.8" font-family="Times,serif" font-weight="bold" font-size="14.00" fill="#000000">transactions</text>
<text text-anchor="start" x="708" y="-94.8" font-family="Times,serif" font-weight="bold" font-size="14.00" fill="#000000">itemized list of food prices</text>
<polygon fill="#01f800" stroke="transparent" points="660,-67 660,-88 725,-88 725,-67 660,-67"/>
<polygon fill="none" stroke="#000000" points="660,-67 660,-88 725,-88 725,-67 660,-67"/>
<text text-anchor="start" x="663" y="-73.8" font-family="Times,serif" font-size="14.00" fill="#000000">group_id</text>
<polygon fill="#01f800" stroke="transparent" points="725,-67 725,-88 769,-88 769,-67 725,-67"/>
<polygon fill="none" stroke="#000000" points="725,-67 725,-88 769,-88 769,-67 725,-67"/>
<text text-anchor="start" x="728" y="-73.8" font-family="Times,serif" font-size="14.00" fill="#000000">integer</text>
<polygon fill="#01f800" stroke="transparent" points="769,-67 769,-88 910,-88 910,-67 769,-67"/>
<polygon fill="none" stroke="#000000" points="769,-67 769,-88 910,-88 910,-67 769,-67"/>
<text text-anchor="start" x="855" y="-73.8" font-family="Times,serif" font-size="14.00" fill="#000000">[not null]</text>
<polygon fill="#01f800" stroke="transparent" points="660,-46 660,-67 725,-67 725,-46 660,-46"/>
<polygon fill="none" stroke="#000000" points="660,-46 660,-67 725,-67 725,-46 660,-46"/>
<text text-anchor="start" x="663" y="-52.8" font-family="Times,serif" font-size="14.00" fill="#000000">id</text>
<polygon fill="#01f800" stroke="transparent" points="725,-46 725,-67 769,-67 769,-46 725,-46"/>
<polygon fill="none" stroke="#000000" points="725,-46 725,-67 769,-67 769,-46 725,-46"/>
<text text-anchor="start" x="728" y="-52.8" font-family="Times,serif" font-size="14.00" fill="#000000">integer</text>
<polygon fill="#01f800" stroke="transparent" points="769,-46 769,-67 910,-67 910,-46 769,-46"/>
<polygon fill="none" stroke="#000000" points="769,-46 769,-67 910,-67 910,-46 769,-46"/>
<text text-anchor="start" x="855" y="-52.8" font-family="Times,serif" font-size="14.00" fill="#000000">[not null]</text>
<polygon fill="#01f800" stroke="transparent" points="660,-25 660,-46 725,-46 725,-25 660,-25"/>
<polygon fill="none" stroke="#000000" points="660,-25 660,-46 725,-46 725,-25 660,-25"/>
<text text-anchor="start" x="663" y="-31.8" font-family="Times,serif" font-size="14.00" fill="#000000">txn_id</text>
<polygon fill="#01f800" stroke="transparent" points="725,-25 725,-46 769,-46 769,-25 725,-25"/>
<polygon fill="none" stroke="#000000" points="725,-25 725,-46 769,-46 769,-25 725,-25"/>
<text text-anchor="start" x="728" y="-31.8" font-family="Times,serif" font-size="14.00" fill="#000000">integer</text>
<polygon fill="#01f800" stroke="transparent" points="769,-25 769,-46 910,-46 910,-25 769,-25"/>
<polygon fill="none" stroke="#000000" points="769,-25 769,-46 910,-46 910,-25 769,-25"/>
<text text-anchor="start" x="772" y="-31.8" font-family="Times,serif" font-size="14.00" fill="#000000">[pk, increment, not null]</text>
<polygon fill="#01f800" stroke="transparent" points="660,-4 660,-25 725,-25 725,-4 660,-4"/>
<polygon fill="none" stroke="#000000" points="660,-4 660,-25 725,-25 725,-4 660,-4"/>
<text text-anchor="start" x="663" y="-10.8" font-family="Times,serif" font-size="14.00" fill="#000000">food_price</text>
<polygon fill="#01f800" stroke="transparent" points="725,-4 725,-25 769,-25 769,-4 725,-4"/>
<polygon fill="none" stroke="#000000" points="725,-4 725,-25 769,-25 769,-4 725,-4"/>
<text text-anchor="start" x="728" y="-10.8" font-family="Times,serif" font-size="14.00" fill="#000000">float</text>
<polygon fill="#01f800" stroke="transparent" points="769,-4 769,-25 910,-25 910,-4 769,-4"/>
<polygon fill="none" stroke="#000000" points="769,-4 769,-25 910,-25 910,-4 769,-4"/>
<text text-anchor="start" x="855" y="-10.8" font-family="Times,serif" font-size="14.00" fill="#000000">[not null]</text>
</a>
</g>
</g>
<!-- 18984 -->
<g id="node4" class="node">
<title>18984</title>
<g id="a_node4"><a xlink:href="javascript:window.parent.edit_table('/projects/1462/tables/18984/edit');" xlink:title="&lt;TABLE&gt;">
<polygon fill="#ececfc" stroke="transparent" points="344.5,-256 344.5,-290 577.5,-290 577.5,-256 344.5,-256"/>
<polygon fill="none" stroke="#000000" points="344.5,-256 344.5,-290 577.5,-290 577.5,-256 344.5,-256"/>
<text text-anchor="start" x="432.5" y="-276.8" font-family="Times,serif" font-weight="bold" font-size="14.00" fill="#000000">summary</text>
<text text-anchor="start" x="388" y="-262.8" font-family="Times,serif" font-weight="bold" font-size="14.00" fill="#000000">summary of transactions</text>
<polygon fill="#01f800" stroke="transparent" points="344.5,-235 344.5,-256 434.5,-256 434.5,-235 344.5,-235"/>
<polygon fill="none" stroke="#000000" points="344.5,-235 344.5,-256 434.5,-256 434.5,-235 344.5,-235"/>
<text text-anchor="start" x="347.5" y="-241.8" font-family="Times,serif" font-size="14.00" fill="#000000">group_id</text>
<polygon fill="#01f800" stroke="transparent" points="434.5,-235 434.5,-256 498.5,-256 498.5,-235 434.5,-235"/>
<polygon fill="none" stroke="#000000" points="434.5,-235 434.5,-256 498.5,-256 498.5,-235 434.5,-235"/>
<text text-anchor="start" x="437.5" y="-241.8" font-family="Times,serif" font-size="14.00" fill="#000000">integer</text>
<polygon fill="#01f800" stroke="transparent" points="498.5,-235 498.5,-256 577.5,-256 577.5,-235 498.5,-235"/>
<polygon fill="none" stroke="#000000" points="498.5,-235 498.5,-256 577.5,-256 577.5,-235 498.5,-235"/>
<text text-anchor="start" x="501.5" y="-241.8" font-family="Times,serif" font-size="14.00" fill="#000000">[pk, not null]</text>
<polygon fill="#01f800" stroke="transparent" points="344.5,-214 344.5,-235 434.5,-235 434.5,-214 344.5,-214"/>
<polygon fill="none" stroke="#000000" points="344.5,-214 344.5,-235 434.5,-235 434.5,-214 344.5,-214"/>
<text text-anchor="start" x="347.5" y="-220.8" font-family="Times,serif" font-size="14.00" fill="#000000">id</text>
<polygon fill="#01f800" stroke="transparent" points="434.5,-214 434.5,-235 498.5,-235 498.5,-214 434.5,-214"/>
<polygon fill="none" stroke="#000000" points="434.5,-214 434.5,-235 498.5,-235 498.5,-214 434.5,-214"/>
<text text-anchor="start" x="437.5" y="-220.8" font-family="Times,serif" font-size="14.00" fill="#000000">integer</text>
<polygon fill="#01f800" stroke="transparent" points="498.5,-214 498.5,-235 577.5,-235 577.5,-214 498.5,-214"/>
<polygon fill="none" stroke="#000000" points="498.5,-214 498.5,-235 577.5,-235 577.5,-214 498.5,-214"/>
<text text-anchor="start" x="522.5" y="-220.8" font-family="Times,serif" font-size="14.00" fill="#000000">[not null]</text>
<polygon fill="#01f800" stroke="transparent" points="344.5,-193 344.5,-214 434.5,-214 434.5,-193 344.5,-193"/>
<polygon fill="none" stroke="#000000" points="344.5,-193 344.5,-214 434.5,-214 434.5,-193 344.5,-193"/>
<text text-anchor="start" x="347.5" y="-199.8" font-family="Times,serif" font-size="14.00" fill="#000000">date</text>
<polygon fill="#01f800" stroke="transparent" points="434.5,-193 434.5,-214 498.5,-214 498.5,-193 434.5,-193"/>
<polygon fill="none" stroke="#000000" points="434.5,-193 434.5,-214 498.5,-214 498.5,-193 434.5,-193"/>
<text text-anchor="start" x="437.5" y="-199.8" font-family="Times,serif" font-size="14.00" fill="#000000">timestamp</text>
<polygon fill="#01f800" stroke="transparent" points="498.5,-193 498.5,-214 577.5,-214 577.5,-193 498.5,-193"/>
<polygon fill="none" stroke="#000000" points="498.5,-193 498.5,-214 577.5,-214 577.5,-193 498.5,-193"/>
<text text-anchor="start" x="543.5" y="-199.8" font-family="Times,serif" font-size="14.00" fill="#000000">[null]</text>
<polygon fill="#01f800" stroke="transparent" points="344.5,-172 344.5,-193 434.5,-193 434.5,-172 344.5,-172"/>
<polygon fill="none" stroke="#000000" points="344.5,-172 344.5,-193 434.5,-193 434.5,-172 344.5,-172"/>
<text text-anchor="start" x="347.5" y="-178.8" font-family="Times,serif" font-size="14.00" fill="#000000">tip</text>
<polygon fill="#01f800" stroke="transparent" points="434.5,-172 434.5,-193 498.5,-193 498.5,-172 434.5,-172"/>
<polygon fill="none" stroke="#000000" points="434.5,-172 434.5,-193 498.5,-193 498.5,-172 434.5,-172"/>
<text text-anchor="start" x="437.5" y="-178.8" font-family="Times,serif" font-size="14.00" fill="#000000">float</text>
<polygon fill="#01f800" stroke="transparent" points="498.5,-172 498.5,-193 577.5,-193 577.5,-172 498.5,-172"/>
<polygon fill="none" stroke="#000000" points="498.5,-172 498.5,-193 577.5,-193 577.5,-172 498.5,-172"/>
<text text-anchor="start" x="543.5" y="-178.8" font-family="Times,serif" font-size="14.00" fill="#000000">[null]</text>
<polygon fill="#01f800" stroke="transparent" points="344.5,-151 344.5,-172 434.5,-172 434.5,-151 344.5,-151"/>
<polygon fill="none" stroke="#000000" points="344.5,-151 344.5,-172 434.5,-172 434.5,-151 344.5,-151"/>
<text text-anchor="start" x="347.5" y="-157.8" font-family="Times,serif" font-size="14.00" fill="#000000">fees</text>
<polygon fill="#01f800" stroke="transparent" points="434.5,-151 434.5,-172 498.5,-172 498.5,-151 434.5,-151"/>
<polygon fill="none" stroke="#000000" points="434.5,-151 434.5,-172 498.5,-172 498.5,-151 434.5,-151"/>
<text text-anchor="start" x="437.5" y="-157.8" font-family="Times,serif" font-size="14.00" fill="#000000">float</text>
<polygon fill="#01f800" stroke="transparent" points="498.5,-151 498.5,-172 577.5,-172 577.5,-151 498.5,-151"/>
<polygon fill="none" stroke="#000000" points="498.5,-151 498.5,-172 577.5,-172 577.5,-151 498.5,-151"/>
<text text-anchor="start" x="543.5" y="-157.8" font-family="Times,serif" font-size="14.00" fill="#000000">[null]</text>
<polygon fill="#01f800" stroke="transparent" points="344.5,-130 344.5,-151 434.5,-151 434.5,-130 344.5,-130"/>
<polygon fill="none" stroke="#000000" points="344.5,-130 344.5,-151 434.5,-151 434.5,-130 344.5,-130"/>
<text text-anchor="start" x="347.5" y="-136.8" font-family="Times,serif" font-size="14.00" fill="#000000">tax</text>
<polygon fill="#01f800" stroke="transparent" points="434.5,-130 434.5,-151 498.5,-151 498.5,-130 434.5,-130"/>
<polygon fill="none" stroke="#000000" points="434.5,-130 434.5,-151 498.5,-151 498.5,-130 434.5,-130"/>
<text text-anchor="start" x="437.5" y="-136.8" font-family="Times,serif" font-size="14.00" fill="#000000">float</text>
<polygon fill="#01f800" stroke="transparent" points="498.5,-130 498.5,-151 577.5,-151 577.5,-130 498.5,-130"/>
<polygon fill="none" stroke="#000000" points="498.5,-130 498.5,-151 577.5,-151 577.5,-130 498.5,-130"/>
<text text-anchor="start" x="543.5" y="-136.8" font-family="Times,serif" font-size="14.00" fill="#000000">[null]</text>
<polygon fill="#01f800" stroke="transparent" points="344.5,-109 344.5,-130 434.5,-130 434.5,-109 344.5,-109"/>
<polygon fill="none" stroke="#000000" points="344.5,-109 344.5,-130 434.5,-130 434.5,-109 344.5,-109"/>
<text text-anchor="start" x="347.5" y="-115.8" font-family="Times,serif" font-size="14.00" fill="#000000">food_sum</text>
<polygon fill="#01f800" stroke="transparent" points="434.5,-109 434.5,-130 498.5,-130 498.5,-109 434.5,-109"/>
<polygon fill="none" stroke="#000000" points="434.5,-109 434.5,-130 498.5,-130 498.5,-109 434.5,-109"/>
<text text-anchor="start" x="437.5" y="-115.8" font-family="Times,serif" font-size="14.00" fill="#000000">float</text>
<polygon fill="#01f800" stroke="transparent" points="498.5,-109 498.5,-130 577.5,-130 577.5,-109 498.5,-109"/>
<polygon fill="none" stroke="#000000" points="498.5,-109 498.5,-130 577.5,-130 577.5,-109 498.5,-109"/>
<text text-anchor="start" x="522.5" y="-115.8" font-family="Times,serif" font-size="14.00" fill="#000000">[not null]</text>
<polygon fill="#01f800" stroke="transparent" points="344.5,-88 344.5,-109 434.5,-109 434.5,-88 344.5,-88"/>
<polygon fill="none" stroke="#000000" points="344.5,-88 344.5,-109 434.5,-109 434.5,-88 344.5,-88"/>
<text text-anchor="start" x="347.5" y="-94.8" font-family="Times,serif" font-size="14.00" fill="#000000">venmo_request</text>
<polygon fill="#01f800" stroke="transparent" points="434.5,-88 434.5,-109 498.5,-109 498.5,-88 434.5,-88"/>
<polygon fill="none" stroke="#000000" points="434.5,-88 434.5,-109 498.5,-109 498.5,-88 434.5,-88"/>
<text text-anchor="start" x="437.5" y="-94.8" font-family="Times,serif" font-size="14.00" fill="#000000">float</text>
<polygon fill="#01f800" stroke="transparent" points="498.5,-88 498.5,-109 577.5,-109 577.5,-88 498.5,-88"/>
<polygon fill="none" stroke="#000000" points="498.5,-88 498.5,-109 577.5,-109 577.5,-88 498.5,-88"/>
<text text-anchor="start" x="522.5" y="-94.8" font-family="Times,serif" font-size="14.00" fill="#000000">[not null]</text>
</a>
</g>
</g>
<!-- 18984&#45;&gt;18985 -->
<g id="edge1" class="edge">
<title>18984:right205163&#45;&gt;18985:left205168</title>
<g id="a_edge1"><a xlink:href="javascript:window.parent.edit_relationship('/projects/1462/relationships/76646/edit');" xlink:title="many">
<path fill="none" stroke="#000000" d="M577.5,-246C656.9471,-246 584.014,-92.7547 649.7707,-78.9866"/>
<polygon fill="#000000" stroke="#000000" points="650.3822,-82.444 660,-78 649.7101,-75.4763 650.3822,-82.444"/>
</a>
</g>
<g id="a_edge1&#45;label"><a xlink:href="javascript:window.parent.edit_relationship('/projects/1462/relationships/76646/edit');" xlink:title="many">
<text text-anchor="middle" x="618.5" y="-240.8" font-family="Times,serif" font-size="14.00" fill="#000000">many</text>
</a>
</g>
</g>
<!-- 18983 -->
<g id="node5" class="node">
<title>18983</title>
<g id="a_node5"><a xlink:href="javascript:window.parent.edit_table('/projects/1462/tables/18983/edit');" xlink:title="&lt;TABLE&gt;">
<polygon fill="#ececfc" stroke="transparent" points="8.5,-235 8.5,-269 261.5,-269 261.5,-235 8.5,-235"/>
<polygon fill="none" stroke="#000000" points="8.5,-235 8.5,-269 261.5,-269 261.5,-235 8.5,-235"/>
<text text-anchor="start" x="119.5" y="-255.8" font-family="Times,serif" font-weight="bold" font-size="14.00" fill="#000000">users</text>
<text text-anchor="start" x="60.5" y="-241.8" font-family="Times,serif" font-weight="bold" font-size="14.00" fill="#000000">table of all names and ids</text>
<polygon fill="#01f800" stroke="transparent" points="8.5,-214 8.5,-235 73.5,-235 73.5,-214 8.5,-214"/>
<polygon fill="none" stroke="#000000" points="8.5,-214 8.5,-235 73.5,-235 73.5,-214 8.5,-214"/>
<text text-anchor="start" x="11.5" y="-220.8" font-family="Times,serif" font-size="14.00" fill="#000000">id</text>
<polygon fill="#01f800" stroke="transparent" points="73.5,-214 73.5,-235 120.5,-235 120.5,-214 73.5,-214"/>
<polygon fill="none" stroke="#000000" points="73.5,-214 73.5,-235 120.5,-235 120.5,-214 73.5,-214"/>
<text text-anchor="start" x="76.5" y="-220.8" font-family="Times,serif" font-size="14.00" fill="#000000">integer</text>
<polygon fill="#01f800" stroke="transparent" points="120.5,-214 120.5,-235 261.5,-235 261.5,-214 120.5,-214"/>
<polygon fill="none" stroke="#000000" points="120.5,-214 120.5,-235 261.5,-235 261.5,-214 120.5,-214"/>
<text text-anchor="start" x="123.5" y="-220.8" font-family="Times,serif" font-size="14.00" fill="#000000">[pk, increment, not null]</text>
<polygon fill="#01f800" stroke="transparent" points="8.5,-193 8.5,-214 73.5,-214 73.5,-193 8.5,-193"/>
<polygon fill="none" stroke="#000000" points="8.5,-193 8.5,-214 73.5,-214 73.5,-193 8.5,-193"/>
<text text-anchor="start" x="11.5" y="-199.8" font-family="Times,serif" font-size="14.00" fill="#000000">username</text>
<polygon fill="#01f800" stroke="transparent" points="73.5,-193 73.5,-214 120.5,-214 120.5,-193 73.5,-193"/>
<polygon fill="none" stroke="#000000" points="73.5,-193 73.5,-214 120.5,-214 120.5,-193 73.5,-193"/>
<text text-anchor="start" x="76.5" y="-199.8" font-family="Times,serif" font-size="14.00" fill="#000000">varchar</text>
<polygon fill="#01f800" stroke="transparent" points="120.5,-193 120.5,-214 261.5,-214 261.5,-193 120.5,-193"/>
<polygon fill="none" stroke="#000000" points="120.5,-193 120.5,-214 261.5,-214 261.5,-193 120.5,-193"/>
<text text-anchor="start" x="206.5" y="-199.8" font-family="Times,serif" font-size="14.00" fill="#000000">[not null]</text>
<polygon fill="#01f800" stroke="transparent" points="8.5,-172 8.5,-193 73.5,-193 73.5,-172 8.5,-172"/>
<polygon fill="none" stroke="#000000" points="8.5,-172 8.5,-193 73.5,-193 73.5,-172 8.5,-172"/>
<text text-anchor="start" x="11.5" y="-178.8" font-family="Times,serif" font-size="14.00" fill="#000000">nicknames</text>
<polygon fill="#01f800" stroke="transparent" points="73.5,-172 73.5,-193 120.5,-193 120.5,-172 73.5,-172"/>
<polygon fill="none" stroke="#000000" points="73.5,-172 73.5,-193 120.5,-193 120.5,-172 73.5,-172"/>
<text text-anchor="start" x="76.5" y="-178.8" font-family="Times,serif" font-size="14.00" fill="#000000">varchar</text>
<polygon fill="#01f800" stroke="transparent" points="120.5,-172 120.5,-193 261.5,-193 261.5,-172 120.5,-172"/>
<polygon fill="none" stroke="#000000" points="120.5,-172 120.5,-193 261.5,-193 261.5,-172 120.5,-172"/>
<text text-anchor="start" x="206.5" y="-178.8" font-family="Times,serif" font-size="14.00" fill="#000000">[not null]</text>
</a>
</g>
</g>
<!-- 18983&#45;&gt;18995 -->
<g id="edge3" class="edge">
<title>18983:right205160&#45;&gt;18995:left205274</title>
<g id="a_edge3"><a xlink:href="javascript:window.parent.edit_relationship('/projects/1462/relationships/76644/edit');" xlink:title="one">
<path fill="none" stroke="#000000" d="M261.5,-225C296.171,-225 313.2137,-344.2874 344.7171,-365.7218"/>
<polygon fill="#000000" stroke="#000000" points="343.9061,-369.1413 354.5,-369 346.1303,-362.504 343.9061,-369.1413"/>
</a>
</g>
<g id="a_edge3&#45;label"><a xlink:href="javascript:window.parent.edit_relationship('/projects/1462/relationships/76644/edit');" xlink:title="one">
<text text-anchor="middle" x="302.5" y="-325.8" font-family="Times,serif" font-size="14.00" fill="#000000">one</text>
</a>
</g>
</g>
<!-- 18983&#45;&gt;18985 -->
<g id="edge2" class="edge">
<title>18983:right205160&#45;&gt;18985:left205169</title>
<g id="a_edge2"><a xlink:href="javascript:window.parent.edit_relationship('/projects/1462/relationships/76636/edit');" xlink:title="many">
<path fill="none" stroke="#000000" d="M261.5,-225C341.9619,-225 268.6752,-104.0624 336,-60 453.5563,16.9376 513.0478,-52.4362 649.6013,-55.8695"/>
<polygon fill="#000000" stroke="#000000" points="649.9568,-59.3741 660,-56 650.0448,-52.3747 649.9568,-59.3741"/>
</a>
</g>
<g id="a_edge2&#45;label"><a xlink:href="javascript:window.parent.edit_relationship('/projects/1462/relationships/76636/edit');" xlink:title="many">
<text text-anchor="middle" x="460.5" y="-63.8" font-family="Times,serif" font-size="14.00" fill="#000000">many</text>
</a>
</g>
</g>
<!-- 18983&#45;&gt;18984 -->
<g id="edge4" class="edge">
<title>18983:right205160&#45;&gt;18984:left205164</title>
<g id="a_edge4"><a xlink:href="javascript:window.parent.edit_relationship('/projects/1462/relationships/76635/edit');" xlink:title="many">
<path fill="none" stroke="#000000" d="M261.5,-225C294.7865,-225 305.546,-225 334.4327,-225"/>
<polygon fill="#000000" stroke="#000000" points="334.5,-228.5001 344.5,-225 334.5,-221.5001 334.5,-228.5001"/>
</a>
</g>
<g id="a_edge4&#45;label"><a xlink:href="javascript:window.parent.edit_relationship('/projects/1462/relationships/76635/edit');" xlink:title="many">
<text text-anchor="middle" x="302.5" y="-228.8" font-family="Times,serif" font-size="14.00" fill="#000000">many</text>
</a>
</g>
</g>
</g>
</svg>
